<?xml version="1.0" encoding="UTF-8"?>
<svg xmlns="http://www.w3.org/2000/svg" xmlns:xlink="http://www.w3.org/1999/xlink" width="48pt" height="48pt" viewBox="0 0 48 48" version="1.1">
<g id="surface9038555">
<path style="fill-rule:nonzero;fill:rgb(0%,0%,0%);fill-opacity:1;stroke-width:1;stroke-linecap:butt;stroke-linejoin:round;stroke:rgb(80.000001%,80.000001%,80.000001%);stroke-opacity:1;stroke-miterlimit:10;" d="M 114.67072 21.504956 C 134.427608 21.504956 150.495041 37.572389 150.495041 57.329277 L 150.495041 114.67072 C 150.495041 134.427608 134.427608 150.495041 114.67072 150.495041 L 57.329277 150.495041 C 37.572389 150.495041 21.504956 134.427608 21.504956 114.67072 L 21.504956 57.329277 C 21.504956 37.572389 37.572389 21.504956 57.329277 21.504956 Z M 35.840317 57.329277 L 35.840317 114.67072 C 35.840317 126.513587 45.48641 136.15968 57.329277 136.15968 L 114.67072 136.15968 C 126.513587 136.15968 136.15968 126.513587 136.15968 114.67072 L 136.15968 57.329277 C 136.15968 45.48641 126.513587 35.840317 114.67072 35.840317 L 57.329277 35.840317 C 45.48641 35.840317 35.840317 45.48641 35.840317 57.329277 Z M 129.006081 50.161596 C 129.006081 54.118607 125.795411 57.329277 121.838401 57.329277 C 117.88139 57.329277 114.67072 54.118607 114.67072 50.161596 C 114.67072 46.204586 117.88139 42.993916 121.838401 42.993916 C 125.795411 42.993916 129.006081 46.204586 129.006081 50.161596 Z M 121.838401 85.999999 C 121.838401 105.756886 105.756886 121.838401 85.999999 121.838401 C 66.243111 121.838401 50.161596 105.756886 50.161596 85.999999 C 50.161596 66.243111 66.243111 50.161596 85.999999 50.161596 C 105.756886 50.161596 121.838401 66.243111 121.838401 85.999999 Z M 64.496957 85.999999 C 64.496957 97.856947 74.14305 107.50304 85.999999 107.50304 C 97.856947 107.50304 107.50304 97.856947 107.50304 85.999999 C 107.50304 74.14305 97.856947 64.496957 85.999999 64.496957 C 74.14305 64.496957 64.496957 74.14305 64.496957 85.999999 Z M 64.496957 85.999999 " transform="matrix(0.277395,0,0,0.277395,0.144,0.144)"/>
<path style=" stroke:none;fill-rule:nonzero;fill:rgb(100%,100%,100%);fill-opacity:1;" d="M 16.046875 6.109375 C 10.566406 6.109375 6.109375 10.566406 6.109375 16.046875 L 6.109375 31.953125 C 6.109375 37.433594 10.566406 41.890625 16.046875 41.890625 L 31.953125 41.890625 C 37.433594 41.890625 41.890625 37.433594 41.890625 31.953125 L 41.890625 16.046875 C 41.890625 10.566406 37.433594 6.109375 31.953125 6.109375 Z M 16.046875 10.085938 L 31.953125 10.085938 C 35.238281 10.085938 37.914062 12.761719 37.914062 16.046875 L 37.914062 31.953125 C 37.914062 35.238281 35.238281 37.914062 31.953125 37.914062 L 16.046875 37.914062 C 12.761719 37.914062 10.085938 35.238281 10.085938 31.953125 L 10.085938 16.046875 C 10.085938 12.761719 12.761719 10.085938 16.046875 10.085938 Z M 33.941406 12.070312 C 32.84375 12.070312 31.953125 12.960938 31.953125 14.058594 C 31.953125 15.15625 32.84375 16.046875 33.941406 16.046875 C 35.039062 16.046875 35.929688 15.15625 35.929688 14.058594 C 35.929688 12.960938 35.039062 12.070312 33.941406 12.070312 Z M 24 14.058594 C 18.519531 14.058594 14.058594 18.519531 14.058594 24 C 14.058594 29.480469 18.519531 33.941406 24 33.941406 C 29.480469 33.941406 33.941406 29.480469 33.941406 24 C 33.941406 18.519531 29.480469 14.058594 24 14.058594 Z M 24 18.035156 C 27.289062 18.035156 29.964844 20.710938 29.964844 24 C 29.964844 27.289062 27.289062 29.964844 24 29.964844 C 20.710938 29.964844 18.035156 27.289062 18.035156 24 C 18.035156 20.710938 20.710938 18.035156 24 18.035156 Z M 24 18.035156 "/>
</g>
</svg>
